<svg width="966" height="76" viewBox="0 0 966 76" fill="none" xmlns="http://www.w3.org/2000/svg">
<rect x="629" width="138" height="76" rx="10" fill="#C4C4C4"/>
<path d="M691.523 46V28.9375H697.5C699.57 28.9375 701.141 29.3359 702.211 30.1328C703.281 30.9219 703.816 32.082 703.816 33.6133C703.816 34.4492 703.602 35.1875 703.172 35.8281C702.742 36.4609 702.145 36.9258 701.379 37.2227C702.254 37.4414 702.941 37.8828 703.441 38.5469C703.949 39.2109 704.203 40.0234 704.203 40.9844C704.203 42.625 703.68 43.8672 702.633 44.7109C701.586 45.5547 700.094 45.9844 698.156 46H691.523ZM695.039 38.5703V43.1758H698.051C698.879 43.1758 699.523 42.9805 699.984 42.5898C700.453 42.1914 700.688 41.6445 700.688 40.9492C700.688 39.3867 699.879 38.5938 698.262 38.5703H695.039ZM695.039 36.0859H697.641C699.414 36.0547 700.301 35.3477 700.301 33.9648C700.301 33.1914 700.074 32.6367 699.621 32.3008C699.176 31.957 698.469 31.7852 697.5 31.7852H695.039V36.0859Z" fill="black"/>
<rect x="828" width="138" height="76" rx="10" fill="#C4C4C4"/>
<path d="M890.523 46V28.9375H895.773C897.273 28.9375 898.613 29.2773 899.793 29.957C900.98 30.6289 901.906 31.5898 902.57 32.8398C903.234 34.082 903.566 35.4961 903.566 37.082V37.8672C903.566 39.4531 903.238 40.8633 902.582 42.0977C901.934 43.332 901.016 44.2891 899.828 44.9688C898.641 45.6484 897.301 45.9922 895.809 46H890.523ZM894.039 31.7852V43.1758H895.738C897.113 43.1758 898.164 42.7266 898.891 41.8281C899.617 40.9297 899.988 39.6445 900.004 37.9727V37.0703C900.004 35.3359 899.645 34.0234 898.926 33.1328C898.207 32.2344 897.156 31.7852 895.773 31.7852H894.039Z" fill="black"/>
<path d="M779 38H816" stroke="#707070" stroke-width="3"/>
<rect width="138" height="76" rx="10" fill="#C4C4C4"/>
<path d="M72.1562 42.4844H65.9922L64.8203 46H61.082L67.4336 28.9375H70.6914L77.0781 46H73.3398L72.1562 42.4844ZM66.9414 39.6367H71.207L69.0625 33.25L66.9414 39.6367Z" fill="black"/>
<rect x="199" width="138" height="76" rx="10" fill="#C4C4C4"/>
<path d="M261.523 46V28.9375H267.5C269.57 28.9375 271.141 29.3359 272.211 30.1328C273.281 30.9219 273.816 32.082 273.816 33.6133C273.816 34.4492 273.602 35.1875 273.172 35.8281C272.742 36.4609 272.145 36.9258 271.379 37.2227C272.254 37.4414 272.941 37.8828 273.441 38.5469C273.949 39.2109 274.203 40.0234 274.203 40.9844C274.203 42.625 273.68 43.8672 272.633 44.7109C271.586 45.5547 270.094 45.9844 268.156 46H261.523ZM265.039 38.5703V43.1758H268.051C268.879 43.1758 269.523 42.9805 269.984 42.5898C270.453 42.1914 270.688 41.6445 270.688 40.9492C270.688 39.3867 269.879 38.5938 268.262 38.5703H265.039ZM265.039 36.0859H267.641C269.414 36.0547 270.301 35.3477 270.301 33.9648C270.301 33.1914 270.074 32.6367 269.621 32.3008C269.176 31.957 268.469 31.7852 267.5 31.7852H265.039V36.0859Z" fill="black"/>
<rect x="398" width="138" height="76" rx="10" fill="#C4C4C4"/>
<path d="M473.918 40.3164C473.785 42.1523 473.105 43.5977 471.879 44.6523C470.66 45.707 469.051 46.2344 467.051 46.2344C464.863 46.2344 463.141 45.5 461.883 44.0312C460.633 42.5547 460.008 40.5312 460.008 37.9609V36.918C460.008 35.2773 460.297 33.832 460.875 32.582C461.453 31.332 462.277 30.375 463.348 29.7109C464.426 29.0391 465.676 28.7031 467.098 28.7031C469.066 28.7031 470.652 29.2305 471.855 30.2852C473.059 31.3398 473.754 32.8203 473.941 34.7266H470.426C470.34 33.625 470.031 32.8281 469.5 32.3359C468.977 31.8359 468.176 31.5859 467.098 31.5859C465.926 31.5859 465.047 32.0078 464.461 32.8516C463.883 33.6875 463.586 34.9883 463.57 36.7539V38.043C463.57 39.8867 463.848 41.2344 464.402 42.0859C464.965 42.9375 465.848 43.3633 467.051 43.3633C468.137 43.3633 468.945 43.1172 469.477 42.625C470.016 42.125 470.324 41.3555 470.402 40.3164H473.918Z" fill="black"/>
<path d="M150 38H187" stroke="#707070" stroke-width="3"/>
<path d="M349 38H386" stroke="#707070" stroke-width="3"/>
<path d="M582.465 44.3359C582.465 43.7969 582.645 43.3594 583.004 43.0234C583.371 42.6875 583.828 42.5195 584.375 42.5195C584.93 42.5195 585.387 42.6875 585.746 43.0234C586.113 43.3594 586.297 43.7969 586.297 44.3359C586.297 44.8672 586.117 45.3008 585.758 45.6367C585.398 45.9648 584.938 46.1289 584.375 46.1289C583.82 46.1289 583.363 45.9648 583.004 45.6367C582.645 45.3008 582.465 44.8672 582.465 44.3359ZM582.465 34.7383C582.465 34.1992 582.645 33.7617 583.004 33.4258C583.371 33.0898 583.828 32.9219 584.375 32.9219C584.93 32.9219 585.387 33.0898 585.746 33.4258C586.113 33.7617 586.297 34.1992 586.297 34.7383C586.297 35.2695 586.117 35.7031 585.758 36.0391C585.398 36.3672 584.938 36.5312 584.375 36.5312C583.82 36.5312 583.363 36.3672 583.004 36.0391C582.645 35.7031 582.465 35.2695 582.465 34.7383Z" fill="black"/>
</svg>
