<svg width="536" height="76" viewBox="0 0 536 76" fill="none" xmlns="http://www.w3.org/2000/svg">
<rect width="138" height="76" rx="10" fill="#C4C4C4"/>
<path d="M72.1562 42.4844H65.9922L64.8203 46H61.082L67.4336 28.9375H70.6914L77.0781 46H73.3398L72.1562 42.4844ZM66.9414 39.6367H71.207L69.0625 33.25L66.9414 39.6367Z" fill="black"/>
<rect x="199" width="138" height="76" rx="10" fill="#C4C4C4"/>
<path d="M261.523 46V28.9375H267.5C269.57 28.9375 271.141 29.3359 272.211 30.1328C273.281 30.9219 273.816 32.082 273.816 33.6133C273.816 34.4492 273.602 35.1875 273.172 35.8281C272.742 36.4609 272.145 36.9258 271.379 37.2227C272.254 37.4414 272.941 37.8828 273.441 38.5469C273.949 39.2109 274.203 40.0234 274.203 40.9844C274.203 42.625 273.68 43.8672 272.633 44.7109C271.586 45.5547 270.094 45.9844 268.156 46H261.523ZM265.039 38.5703V43.1758H268.051C268.879 43.1758 269.523 42.9805 269.984 42.5898C270.453 42.1914 270.688 41.6445 270.688 40.9492C270.688 39.3867 269.879 38.5938 268.262 38.5703H265.039ZM265.039 36.0859H267.641C269.414 36.0547 270.301 35.3477 270.301 33.9648C270.301 33.1914 270.074 32.6367 269.621 32.3008C269.176 31.957 268.469 31.7852 267.5 31.7852H265.039V36.0859Z" fill="black"/>
<rect x="398" width="138" height="76" rx="10" fill="#C4C4C4"/>
<path d="M473.918 40.3164C473.785 42.1523 473.105 43.5977 471.879 44.6523C470.66 45.707 469.051 46.2344 467.051 46.2344C464.863 46.2344 463.141 45.5 461.883 44.0312C460.633 42.5547 460.008 40.5312 460.008 37.9609V36.918C460.008 35.2773 460.297 33.832 460.875 32.582C461.453 31.332 462.277 30.375 463.348 29.7109C464.426 29.0391 465.676 28.7031 467.098 28.7031C469.066 28.7031 470.652 29.2305 471.855 30.2852C473.059 31.3398 473.754 32.8203 473.941 34.7266H470.426C470.34 33.625 470.031 32.8281 469.5 32.3359C468.977 31.8359 468.176 31.5859 467.098 31.5859C465.926 31.5859 465.047 32.0078 464.461 32.8516C463.883 33.6875 463.586 34.9883 463.57 36.7539V38.043C463.57 39.8867 463.848 41.2344 464.402 42.0859C464.965 42.9375 465.848 43.3633 467.051 43.3633C468.137 43.3633 468.945 43.1172 469.477 42.625C470.016 42.125 470.324 41.3555 470.402 40.3164H473.918Z" fill="black"/>
<path d="M150 38H187" stroke="#707070" stroke-width="3"/>
<path d="M349 38H386" stroke="#707070" stroke-width="3"/>
</svg>
