<svg width="735" height="76" viewBox="0 0 735 76" fill="none" xmlns="http://www.w3.org/2000/svg">
<rect width="138" height="76" rx="10" fill="#C4C4C4"/>
<path d="M62.5234 46V28.9375H67.7734C69.2734 28.9375 70.6133 29.2773 71.793 29.957C72.9805 30.6289 73.9062 31.5898 74.5703 32.8398C75.2344 34.082 75.5664 35.4961 75.5664 37.082V37.8672C75.5664 39.4531 75.2383 40.8633 74.582 42.0977C73.9336 43.332 73.0156 44.2891 71.8281 44.9688C70.6406 45.6484 69.3008 45.9922 67.8086 46H62.5234ZM66.0391 31.7852V43.1758H67.7383C69.1133 43.1758 70.1641 42.7266 70.8906 41.8281C71.6172 40.9297 71.9883 39.6445 72.0039 37.9727V37.0703C72.0039 35.3359 71.6445 34.0234 70.9258 33.1328C70.207 32.2344 69.1562 31.7852 67.7734 31.7852H66.0391Z" fill="black"/>
<rect x="199" width="138" height="76" rx="10" fill="#C4C4C4"/>
<path d="M271.156 42.4844H264.992L263.82 46H260.082L266.434 28.9375H269.691L276.078 46H272.34L271.156 42.4844ZM265.941 39.6367H270.207L268.062 33.25L265.941 39.6367Z" fill="black"/>
<rect x="398" width="138" height="76" rx="10" fill="#C4C4C4"/>
<path d="M460.523 46V28.9375H466.5C468.57 28.9375 470.141 29.3359 471.211 30.1328C472.281 30.9219 472.816 32.082 472.816 33.6133C472.816 34.4492 472.602 35.1875 472.172 35.8281C471.742 36.4609 471.145 36.9258 470.379 37.2227C471.254 37.4414 471.941 37.8828 472.441 38.5469C472.949 39.2109 473.203 40.0234 473.203 40.9844C473.203 42.625 472.68 43.8672 471.633 44.7109C470.586 45.5547 469.094 45.9844 467.156 46H460.523ZM464.039 38.5703V43.1758H467.051C467.879 43.1758 468.523 42.9805 468.984 42.5898C469.453 42.1914 469.688 41.6445 469.688 40.9492C469.688 39.3867 468.879 38.5938 467.262 38.5703H464.039ZM464.039 36.0859H466.641C468.414 36.0547 469.301 35.3477 469.301 33.9648C469.301 33.1914 469.074 32.6367 468.621 32.3008C468.176 31.957 467.469 31.7852 466.5 31.7852H464.039V36.0859Z" fill="black"/>
<rect x="597" width="138" height="76" rx="10" fill="#C4C4C4"/>
<path d="M672.918 40.3164C672.785 42.1523 672.105 43.5977 670.879 44.6523C669.66 45.707 668.051 46.2344 666.051 46.2344C663.863 46.2344 662.141 45.5 660.883 44.0312C659.633 42.5547 659.008 40.5312 659.008 37.9609V36.918C659.008 35.2773 659.297 33.832 659.875 32.582C660.453 31.332 661.277 30.375 662.348 29.7109C663.426 29.0391 664.676 28.7031 666.098 28.7031C668.066 28.7031 669.652 29.2305 670.855 30.2852C672.059 31.3398 672.754 32.8203 672.941 34.7266H669.426C669.34 33.625 669.031 32.8281 668.5 32.3359C667.977 31.8359 667.176 31.5859 666.098 31.5859C664.926 31.5859 664.047 32.0078 663.461 32.8516C662.883 33.6875 662.586 34.9883 662.57 36.7539V38.043C662.57 39.8867 662.848 41.2344 663.402 42.0859C663.965 42.9375 664.848 43.3633 666.051 43.3633C667.137 43.3633 667.945 43.1172 668.477 42.625C669.016 42.125 669.324 41.3555 669.402 40.3164H672.918Z" fill="black"/>
<path d="M150 38H187" stroke="#707070" stroke-width="3"/>
<path d="M349 38H386" stroke="#707070" stroke-width="3"/>
<path d="M548 38H585" stroke="#707070" stroke-width="3"/>
</svg>
