<svg width="536" height="76" viewBox="0 0 536 76" fill="none" xmlns="http://www.w3.org/2000/svg">
<rect width="138" height="76" rx="10" fill="#C4C4C4"/>
<path d="M62.5234 46V28.9375H68.5C70.5703 28.9375 72.1406 29.3359 73.2109 30.1328C74.2812 30.9219 74.8164 32.082 74.8164 33.6133C74.8164 34.4492 74.6016 35.1875 74.1719 35.8281C73.7422 36.4609 73.1445 36.9258 72.3789 37.2227C73.2539 37.4414 73.9414 37.8828 74.4414 38.5469C74.9492 39.2109 75.2031 40.0234 75.2031 40.9844C75.2031 42.625 74.6797 43.8672 73.6328 44.7109C72.5859 45.5547 71.0938 45.9844 69.1562 46H62.5234ZM66.0391 38.5703V43.1758H69.0508C69.8789 43.1758 70.5234 42.9805 70.9844 42.5898C71.4531 42.1914 71.6875 41.6445 71.6875 40.9492C71.6875 39.3867 70.8789 38.5938 69.2617 38.5703H66.0391ZM66.0391 36.0859H68.6406C70.4141 36.0547 71.3008 35.3477 71.3008 33.9648C71.3008 33.1914 71.0742 32.6367 70.6211 32.3008C70.1758 31.957 69.4688 31.7852 68.5 31.7852H66.0391V36.0859Z" fill="black"/>
<rect x="199" width="138" height="76" rx="10" fill="#C4C4C4"/>
<path d="M274.918 40.3164C274.785 42.1523 274.105 43.5977 272.879 44.6523C271.66 45.707 270.051 46.2344 268.051 46.2344C265.863 46.2344 264.141 45.5 262.883 44.0312C261.633 42.5547 261.008 40.5312 261.008 37.9609V36.918C261.008 35.2773 261.297 33.832 261.875 32.582C262.453 31.332 263.277 30.375 264.348 29.7109C265.426 29.0391 266.676 28.7031 268.098 28.7031C270.066 28.7031 271.652 29.2305 272.855 30.2852C274.059 31.3398 274.754 32.8203 274.941 34.7266H271.426C271.34 33.625 271.031 32.8281 270.5 32.3359C269.977 31.8359 269.176 31.5859 268.098 31.5859C266.926 31.5859 266.047 32.0078 265.461 32.8516C264.883 33.6875 264.586 34.9883 264.57 36.7539V38.043C264.57 39.8867 264.848 41.2344 265.402 42.0859C265.965 42.9375 266.848 43.3633 268.051 43.3633C269.137 43.3633 269.945 43.1172 270.477 42.625C271.016 42.125 271.324 41.3555 271.402 40.3164H274.918Z" fill="black"/>
<rect x="398" width="138" height="76" rx="10" fill="#C4C4C4"/>
<path d="M460.523 46V28.9375H465.773C467.273 28.9375 468.613 29.2773 469.793 29.957C470.98 30.6289 471.906 31.5898 472.57 32.8398C473.234 34.082 473.566 35.4961 473.566 37.082V37.8672C473.566 39.4531 473.238 40.8633 472.582 42.0977C471.934 43.332 471.016 44.2891 469.828 44.9688C468.641 45.6484 467.301 45.9922 465.809 46H460.523ZM464.039 31.7852V43.1758H465.738C467.113 43.1758 468.164 42.7266 468.891 41.8281C469.617 40.9297 469.988 39.6445 470.004 37.9727V37.0703C470.004 35.3359 469.645 34.0234 468.926 33.1328C468.207 32.2344 467.156 31.7852 465.773 31.7852H464.039Z" fill="black"/>
<path d="M150 38H187" stroke="#707070" stroke-width="3"/>
<path d="M349 38H386" stroke="#707070" stroke-width="3"/>
</svg>
