<svg width="536" height="76" viewBox="0 0 536 76" fill="none" xmlns="http://www.w3.org/2000/svg">
<rect width="138" height="76" rx="10" fill="#C4C4C4"/>
<path d="M72.1562 42.4844H65.9922L64.8203 46H61.082L67.4336 28.9375H70.6914L77.0781 46H73.3398L72.1562 42.4844ZM66.9414 39.6367H71.207L69.0625 33.25L66.9414 39.6367Z" fill="black"/>
<rect x="199" width="138" height="76" rx="10" fill="#C4C4C4"/>
<path d="M274.918 40.3164C274.785 42.1523 274.105 43.5977 272.879 44.6523C271.66 45.707 270.051 46.2344 268.051 46.2344C265.863 46.2344 264.141 45.5 262.883 44.0312C261.633 42.5547 261.008 40.5312 261.008 37.9609V36.918C261.008 35.2773 261.297 33.832 261.875 32.582C262.453 31.332 263.277 30.375 264.348 29.7109C265.426 29.0391 266.676 28.7031 268.098 28.7031C270.066 28.7031 271.652 29.2305 272.855 30.2852C274.059 31.3398 274.754 32.8203 274.941 34.7266H271.426C271.34 33.625 271.031 32.8281 270.5 32.3359C269.977 31.8359 269.176 31.5859 268.098 31.5859C266.926 31.5859 266.047 32.0078 265.461 32.8516C264.883 33.6875 264.586 34.9883 264.57 36.7539V38.043C264.57 39.8867 264.848 41.2344 265.402 42.0859C265.965 42.9375 266.848 43.3633 268.051 43.3633C269.137 43.3633 269.945 43.1172 270.477 42.625C271.016 42.125 271.324 41.3555 271.402 40.3164H274.918Z" fill="black"/>
<rect x="398" width="138" height="76" rx="10" fill="#C4C4C4"/>
<path d="M460.523 46V28.9375H465.773C467.273 28.9375 468.613 29.2773 469.793 29.957C470.98 30.6289 471.906 31.5898 472.57 32.8398C473.234 34.082 473.566 35.4961 473.566 37.082V37.8672C473.566 39.4531 473.238 40.8633 472.582 42.0977C471.934 43.332 471.016 44.2891 469.828 44.9688C468.641 45.6484 467.301 45.9922 465.809 46H460.523ZM464.039 31.7852V43.1758H465.738C467.113 43.1758 468.164 42.7266 468.891 41.8281C469.617 40.9297 469.988 39.6445 470.004 37.9727V37.0703C470.004 35.3359 469.645 34.0234 468.926 33.1328C468.207 32.2344 467.156 31.7852 465.773 31.7852H464.039Z" fill="black"/>
<path d="M150 38H187" stroke="#707070" stroke-width="3"/>
<path d="M349 38H386" stroke="#707070" stroke-width="3"/>
</svg>
